<mxfile host="65bd71144e">
    <diagram id="Trdfxok5Aq1pw58_UTrk" name="Page-1">
        <mxGraphModel dx="1140" dy="910" grid="1" gridSize="10" guides="1" tooltips="1" connect="1" arrows="1" fold="1" page="1" pageScale="1" pageWidth="827" pageHeight="1169" math="0" shadow="0">
            <root>
                <mxCell id="0"/>
                <mxCell id="1" parent="0"/>
                <mxCell id="164" style="edgeStyle=none;html=1;exitX=1;exitY=0.5;exitDx=0;exitDy=0;" edge="1" parent="1" source="5akjp0fPnfC4H997W78s-1" target="5akjp0fPnfC4H997W78s-3">
                    <mxGeometry relative="1" as="geometry"/>
                </mxCell>
                <mxCell id="5akjp0fPnfC4H997W78s-1" value="Student" style="rounded=0;whiteSpace=wrap;html=1;" parent="1" vertex="1">
                    <mxGeometry x="40" y="40" width="120" height="60" as="geometry"/>
                </mxCell>
                <mxCell id="5akjp0fPnfC4H997W78s-2" value="Exercise" style="rounded=0;whiteSpace=wrap;html=1;" parent="1" vertex="1">
                    <mxGeometry x="440" y="40" width="120" height="60" as="geometry"/>
                </mxCell>
                <mxCell id="165" style="edgeStyle=none;html=1;exitX=1;exitY=0.5;exitDx=0;exitDy=0;" edge="1" parent="1" source="5akjp0fPnfC4H997W78s-3" target="5akjp0fPnfC4H997W78s-2">
                    <mxGeometry relative="1" as="geometry"/>
                </mxCell>
                <mxCell id="5akjp0fPnfC4H997W78s-3" value="Approval" style="rhombus;whiteSpace=wrap;html=1;" parent="1" vertex="1">
                    <mxGeometry x="260" y="30" width="80" height="80" as="geometry"/>
                </mxCell>
                <mxCell id="166" style="edgeStyle=none;html=1;exitX=1;exitY=0.5;exitDx=0;exitDy=0;" edge="1" parent="1" source="5akjp0fPnfC4H997W78s-25" target="5akjp0fPnfC4H997W78s-27">
                    <mxGeometry relative="1" as="geometry"/>
                </mxCell>
                <mxCell id="5akjp0fPnfC4H997W78s-25" value="Student" style="rounded=0;whiteSpace=wrap;html=1;" parent="1" vertex="1">
                    <mxGeometry x="40" y="130" width="120" height="60" as="geometry"/>
                </mxCell>
                <mxCell id="5akjp0fPnfC4H997W78s-26" value="Subject" style="rounded=0;whiteSpace=wrap;html=1;" parent="1" vertex="1">
                    <mxGeometry x="440" y="130" width="120" height="60" as="geometry"/>
                </mxCell>
                <mxCell id="167" style="edgeStyle=none;html=1;exitX=1;exitY=0.5;exitDx=0;exitDy=0;" edge="1" parent="1" source="5akjp0fPnfC4H997W78s-27" target="5akjp0fPnfC4H997W78s-26">
                    <mxGeometry relative="1" as="geometry"/>
                </mxCell>
                <mxCell id="5akjp0fPnfC4H997W78s-27" value="Participates in" style="rhombus;whiteSpace=wrap;html=1;" parent="1" vertex="1">
                    <mxGeometry x="260" y="120" width="80" height="80" as="geometry"/>
                </mxCell>
                <mxCell id="168" style="edgeStyle=none;html=1;exitX=1;exitY=0.5;exitDx=0;exitDy=0;entryX=0;entryY=0.5;entryDx=0;entryDy=0;" edge="1" parent="1" source="5akjp0fPnfC4H997W78s-30" target="5akjp0fPnfC4H997W78s-32">
                    <mxGeometry relative="1" as="geometry"/>
                </mxCell>
                <mxCell id="5akjp0fPnfC4H997W78s-30" value="Exercise" style="rounded=0;whiteSpace=wrap;html=1;" parent="1" vertex="1">
                    <mxGeometry x="40" y="220" width="120" height="60" as="geometry"/>
                </mxCell>
                <mxCell id="5akjp0fPnfC4H997W78s-31" value="Subject" style="rounded=0;whiteSpace=wrap;html=1;" parent="1" vertex="1">
                    <mxGeometry x="440" y="220" width="120" height="60" as="geometry"/>
                </mxCell>
                <mxCell id="95" value="Teaching" style="rhombus;whiteSpace=wrap;html=1;" vertex="1" parent="1">
                    <mxGeometry x="486" y="980" width="80" height="80" as="geometry"/>
                </mxCell>
                <mxCell id="98" style="edgeStyle=none;html=1;exitX=0;exitY=1;exitDx=0;exitDy=0;entryX=1;entryY=0;entryDx=0;entryDy=0;" edge="1" parent="1" source="95" target="64">
                    <mxGeometry relative="1" as="geometry"/>
                </mxCell>
                <mxCell id="48" value="Approval" style="rhombus;whiteSpace=wrap;html=1;" vertex="1" parent="1">
                    <mxGeometry x="746" y="980" width="80" height="80" as="geometry"/>
                </mxCell>
                <mxCell id="52" value="" style="endArrow=none;html=1;rounded=0;entryX=0;entryY=0;entryDx=0;entryDy=0;exitX=0.5;exitY=1;exitDx=0;exitDy=0;" edge="1" parent="1" source="75" target="50">
                    <mxGeometry width="50" height="50" relative="1" as="geometry">
                        <mxPoint x="168" y="1124.5" as="sourcePoint"/>
                        <mxPoint x="226" y="1151.5" as="targetPoint"/>
                    </mxGeometry>
                </mxCell>
                <mxCell id="53" value="" style="endArrow=none;html=1;rounded=0;entryX=0.25;entryY=0;entryDx=0;entryDy=0;exitX=0.5;exitY=1;exitDx=0;exitDy=0;" edge="1" parent="1" source="74" target="50">
                    <mxGeometry width="50" height="50" relative="1" as="geometry">
                        <mxPoint x="344.1300814201802" y="760.441876110636" as="sourcePoint"/>
                        <mxPoint x="156" y="1301.5" as="targetPoint"/>
                    </mxGeometry>
                </mxCell>
                <mxCell id="54" value="" style="endArrow=none;html=1;rounded=0;exitX=0.5;exitY=1;exitDx=0;exitDy=0;entryX=0.75;entryY=0;entryDx=0;entryDy=0;" edge="1" parent="1" source="49" target="50">
                    <mxGeometry width="50" height="50" relative="1" as="geometry">
                        <mxPoint x="166" y="1341.5" as="sourcePoint"/>
                        <mxPoint x="423" y="811.5" as="targetPoint"/>
                    </mxGeometry>
                </mxCell>
                <mxCell id="55" value="" style="endArrow=none;html=1;rounded=0;exitX=1;exitY=0;exitDx=0;exitDy=0;entryX=0.5;entryY=1;entryDx=0;entryDy=0;" edge="1" parent="1" source="50" target="73">
                    <mxGeometry width="50" height="50" relative="1" as="geometry">
                        <mxPoint x="356" y="1211.5" as="sourcePoint"/>
                        <mxPoint x="579.5990859251531" y="756.5249104490999" as="targetPoint"/>
                    </mxGeometry>
                </mxCell>
                <mxCell id="57" value="" style="endArrow=none;html=1;rounded=0;exitX=0;exitY=0.5;exitDx=0;exitDy=0;entryX=1;entryY=0.5;entryDx=0;entryDy=0;" edge="1" parent="1" source="113" target="48">
                    <mxGeometry width="50" height="50" relative="1" as="geometry">
                        <mxPoint x="851" y="1024" as="sourcePoint"/>
                        <mxPoint x="748" y="966.5" as="targetPoint"/>
                    </mxGeometry>
                </mxCell>
                <mxCell id="59" value="Student" style="rounded=0;whiteSpace=wrap;html=1;" vertex="1" parent="1">
                    <mxGeometry x="726" y="1176.5" width="120" height="60" as="geometry"/>
                </mxCell>
                <mxCell id="60" value="" style="endArrow=none;html=1;rounded=0;entryX=0.75;entryY=1;entryDx=0;entryDy=0;exitX=0.5;exitY=0;exitDx=0;exitDy=0;" edge="1" parent="1" source="78" target="59">
                    <mxGeometry width="50" height="50" relative="1" as="geometry">
                        <mxPoint x="901" y="1249" as="sourcePoint"/>
                        <mxPoint x="621" y="1449" as="targetPoint"/>
                    </mxGeometry>
                </mxCell>
                <mxCell id="61" value="" style="endArrow=none;html=1;rounded=0;exitX=0.5;exitY=0;exitDx=0;exitDy=0;entryX=0.5;entryY=1;entryDx=0;entryDy=0;" edge="1" parent="1" source="79" target="59">
                    <mxGeometry width="50" height="50" relative="1" as="geometry">
                        <mxPoint x="801" y="1334" as="sourcePoint"/>
                        <mxPoint x="731" y="1439" as="targetPoint"/>
                    </mxGeometry>
                </mxCell>
                <mxCell id="62" value="" style="endArrow=none;html=1;rounded=0;entryX=0.25;entryY=1;entryDx=0;entryDy=0;exitX=0.5;exitY=0;exitDx=0;exitDy=0;" edge="1" parent="1" source="80" target="59">
                    <mxGeometry width="50" height="50" relative="1" as="geometry">
                        <mxPoint x="681" y="1249" as="sourcePoint"/>
                        <mxPoint x="521" y="1519" as="targetPoint"/>
                    </mxGeometry>
                </mxCell>
                <mxCell id="63" style="edgeStyle=none;html=1;" edge="1" parent="1" source="71" target="64">
                    <mxGeometry relative="1" as="geometry">
                        <mxPoint x="406" y="1165" as="targetPoint"/>
                    </mxGeometry>
                </mxCell>
                <mxCell id="64" value="Subject" style="rounded=0;whiteSpace=wrap;html=1;" vertex="1" parent="1">
                    <mxGeometry x="206" y="1176.5" width="120" height="60" as="geometry"/>
                </mxCell>
                <mxCell id="65" value="" style="endArrow=none;html=1;rounded=0;entryX=0.5;entryY=0;entryDx=0;entryDy=0;exitX=0.75;exitY=1;exitDx=0;exitDy=0;" edge="1" parent="1" source="64" target="77">
                    <mxGeometry width="50" height="50" relative="1" as="geometry">
                        <mxPoint x="786" y="1516.5" as="sourcePoint"/>
                        <mxPoint x="329" y="1296.5" as="targetPoint"/>
                    </mxGeometry>
                </mxCell>
                <mxCell id="66" value="" style="endArrow=none;html=1;rounded=0;entryX=0.5;entryY=0;entryDx=0;entryDy=0;exitX=0.25;exitY=1;exitDx=0;exitDy=0;" edge="1" parent="1" source="64" target="76">
                    <mxGeometry width="50" height="50" relative="1" as="geometry">
                        <mxPoint x="676" y="1556.5" as="sourcePoint"/>
                        <mxPoint x="206" y="1291.5" as="targetPoint"/>
                    </mxGeometry>
                </mxCell>
                <mxCell id="67" style="edgeStyle=none;html=1;" edge="1" parent="1" target="69" source="50">
                    <mxGeometry relative="1" as="geometry">
                        <mxPoint x="286" y="911.5" as="sourcePoint"/>
                        <mxPoint x="336" y="919" as="targetPoint"/>
                    </mxGeometry>
                </mxCell>
                <mxCell id="68" style="edgeStyle=none;html=1;exitX=0.5;exitY=1;exitDx=0;exitDy=0;" edge="1" parent="1" source="69" target="64">
                    <mxGeometry relative="1" as="geometry"/>
                </mxCell>
                <mxCell id="69" value="is part of" style="rhombus;whiteSpace=wrap;html=1;" vertex="1" parent="1">
                    <mxGeometry x="226" y="980" width="80" height="80" as="geometry"/>
                </mxCell>
                <mxCell id="70" style="edgeStyle=none;html=1;" edge="1" parent="1" source="59" target="71">
                    <mxGeometry relative="1" as="geometry">
                        <mxPoint x="456" y="1207" as="sourcePoint"/>
                        <mxPoint x="536" y="1155" as="targetPoint"/>
                    </mxGeometry>
                </mxCell>
                <mxCell id="71" value="Participates&lt;br&gt;in" style="rhombus;whiteSpace=wrap;html=1;" vertex="1" parent="1">
                    <mxGeometry x="486" y="1166.5" width="80" height="80" as="geometry"/>
                </mxCell>
                <mxCell id="72" value="&lt;div&gt;&lt;u&gt;PracticeNo&lt;/u&gt;&lt;/div&gt;" style="ellipse;whiteSpace=wrap;html=1;" vertex="1" parent="1">
                    <mxGeometry x="223" y="720" width="86" height="40" as="geometry"/>
                </mxCell>
                <mxCell id="73" value="&lt;div&gt;&lt;div&gt;Submission&lt;/div&gt;&lt;div&gt;Deadline&lt;/div&gt;&lt;/div&gt;" style="ellipse;whiteSpace=wrap;html=1;" vertex="1" parent="1">
                    <mxGeometry x="408" y="721" width="86" height="40" as="geometry"/>
                </mxCell>
                <mxCell id="74" value="&lt;div&gt;Assignment&lt;/div&gt;&lt;div&gt;Text&lt;/div&gt;" style="ellipse;whiteSpace=wrap;html=1;" vertex="1" parent="1">
                    <mxGeometry x="131" y="720" width="86" height="40" as="geometry"/>
                </mxCell>
                <mxCell id="75" value="&lt;div&gt;Title&lt;/div&gt;" style="ellipse;whiteSpace=wrap;html=1;" vertex="1" parent="1">
                    <mxGeometry x="40" y="720" width="86" height="40" as="geometry"/>
                </mxCell>
                <mxCell id="76" value="&lt;div&gt;&lt;u&gt;SubjectNo&lt;/u&gt;&lt;/div&gt;" style="ellipse;whiteSpace=wrap;html=1;" vertex="1" parent="1">
                    <mxGeometry x="166" y="1256.5" width="86" height="40" as="geometry"/>
                </mxCell>
                <mxCell id="77" value="&lt;div&gt;Name&lt;/div&gt;" style="ellipse;whiteSpace=wrap;html=1;" vertex="1" parent="1">
                    <mxGeometry x="277" y="1256.5" width="86" height="40" as="geometry"/>
                </mxCell>
                <mxCell id="78" value="&lt;div&gt;Email&lt;/div&gt;" style="ellipse;whiteSpace=wrap;html=1;" vertex="1" parent="1">
                    <mxGeometry x="851" y="1259" width="86" height="40" as="geometry"/>
                </mxCell>
                <mxCell id="79" value="&lt;div&gt;Name&lt;/div&gt;" style="ellipse;whiteSpace=wrap;html=1;" vertex="1" parent="1">
                    <mxGeometry x="748" y="1259" width="86" height="40" as="geometry"/>
                </mxCell>
                <mxCell id="80" value="&lt;div&gt;&lt;u&gt;StudentNo&lt;/u&gt;&lt;/div&gt;" style="ellipse;whiteSpace=wrap;html=1;" vertex="1" parent="1">
                    <mxGeometry x="645" y="1259" width="86" height="40" as="geometry"/>
                </mxCell>
                <mxCell id="81" value="&lt;div&gt;Name&lt;/div&gt;" style="ellipse;whiteSpace=wrap;html=1;" vertex="1" parent="1">
                    <mxGeometry x="690" y="721" width="86" height="40" as="geometry"/>
                </mxCell>
                <mxCell id="83" value="" style="endArrow=none;html=1;entryX=0.5;entryY=1;entryDx=0;entryDy=0;exitX=0.25;exitY=0;exitDx=0;exitDy=0;" edge="1" parent="1" source="2" target="81">
                    <mxGeometry width="50" height="50" relative="1" as="geometry">
                        <mxPoint x="876" y="921.5" as="sourcePoint"/>
                        <mxPoint x="926" y="871.5" as="targetPoint"/>
                    </mxGeometry>
                </mxCell>
                <mxCell id="84" value="&lt;div&gt;&lt;u&gt;Employmen Id&lt;/u&gt;&lt;/div&gt;" style="ellipse;whiteSpace=wrap;html=1;" vertex="1" parent="1">
                    <mxGeometry x="600" y="721" width="86" height="40" as="geometry"/>
                </mxCell>
                <mxCell id="85" value="" style="endArrow=none;html=1;entryX=0.5;entryY=1;entryDx=0;entryDy=0;exitX=0;exitY=0;exitDx=0;exitDy=0;" edge="1" parent="1" target="84" source="2">
                    <mxGeometry width="50" height="50" relative="1" as="geometry">
                        <mxPoint x="840.04" y="791.5" as="sourcePoint"/>
                        <mxPoint x="920.04" y="821.5" as="targetPoint"/>
                    </mxGeometry>
                </mxCell>
                <mxCell id="86" value="&lt;div&gt;Email&lt;/div&gt;" style="ellipse;whiteSpace=wrap;html=1;" vertex="1" parent="1">
                    <mxGeometry x="785" y="721" width="86" height="40" as="geometry"/>
                </mxCell>
                <mxCell id="87" value="" style="endArrow=none;html=1;entryX=0.5;entryY=1;entryDx=0;entryDy=0;exitX=0.75;exitY=0;exitDx=0;exitDy=0;" edge="1" parent="1" target="86" source="2">
                    <mxGeometry width="50" height="50" relative="1" as="geometry">
                        <mxPoint x="846" y="829" as="sourcePoint"/>
                        <mxPoint x="920.04" y="904" as="targetPoint"/>
                    </mxGeometry>
                </mxCell>
                <mxCell id="88" value="&lt;div&gt;Phone No&lt;/div&gt;" style="ellipse;whiteSpace=wrap;html=1;" vertex="1" parent="1">
                    <mxGeometry x="876" y="720" width="86" height="40" as="geometry"/>
                </mxCell>
                <mxCell id="89" value="" style="endArrow=none;html=1;entryX=0.5;entryY=1;entryDx=0;entryDy=0;exitX=1;exitY=0;exitDx=0;exitDy=0;" edge="1" parent="1" target="88" source="2">
                    <mxGeometry width="50" height="50" relative="1" as="geometry">
                        <mxPoint x="840.04" y="927" as="sourcePoint"/>
                        <mxPoint x="920.04" y="957" as="targetPoint"/>
                    </mxGeometry>
                </mxCell>
                <mxCell id="5akjp0fPnfC4H997W78s-32" value="is part of" style="rhombus;whiteSpace=wrap;html=1;" parent="1" vertex="1">
                    <mxGeometry x="260" y="210" width="80" height="80" as="geometry"/>
                </mxCell>
                <mxCell id="51" value="" style="endArrow=none;html=1;rounded=0;entryX=0.5;entryY=0;entryDx=0;entryDy=0;exitX=0.5;exitY=1;exitDx=0;exitDy=0;" edge="1" parent="1" target="50" source="72">
                    <mxGeometry width="50" height="50" relative="1" as="geometry">
                        <mxPoint x="423" y="760.25" as="sourcePoint"/>
                        <mxPoint x="176" y="1091.5" as="targetPoint"/>
                    </mxGeometry>
                </mxCell>
                <mxCell id="49" value="&lt;div&gt;Solution&lt;/div&gt;&lt;div&gt;Proposal&lt;br&gt;&lt;/div&gt;" style="ellipse;whiteSpace=wrap;html=1;" vertex="1" parent="1">
                    <mxGeometry x="316" y="721" width="86" height="40" as="geometry"/>
                </mxCell>
                <mxCell id="99" style="edgeStyle=none;html=1;exitX=0;exitY=0.5;exitDx=0;exitDy=0;entryX=1;entryY=0;entryDx=0;entryDy=0;" edge="1" parent="1" source="112" target="48">
                    <mxGeometry relative="1" as="geometry">
                        <mxPoint x="851" y="955" as="sourcePoint"/>
                    </mxGeometry>
                </mxCell>
                <mxCell id="97" style="edgeStyle=none;html=1;exitX=0;exitY=1;exitDx=0;exitDy=0;entryX=1;entryY=0;entryDx=0;entryDy=0;" edge="1" parent="1" source="2" target="95">
                    <mxGeometry relative="1" as="geometry">
                        <Array as="points">
                            <mxPoint x="636" y="930"/>
                        </Array>
                    </mxGeometry>
                </mxCell>
                <mxCell id="100" value="Has primary assistant" style="rhombus;whiteSpace=wrap;html=1;" vertex="1" parent="1">
                    <mxGeometry x="626" y="990" width="110" height="60" as="geometry"/>
                </mxCell>
                <mxCell id="50" value="Exercise" style="rounded=0;whiteSpace=wrap;html=1;" vertex="1" parent="1">
                    <mxGeometry x="206" y="797" width="120" height="60" as="geometry"/>
                </mxCell>
                <mxCell id="179" style="edgeStyle=none;html=1;exitX=0.5;exitY=1;exitDx=0;exitDy=0;entryX=0.5;entryY=0;entryDx=0;entryDy=0;" edge="1" parent="1" source="93" target="177">
                    <mxGeometry relative="1" as="geometry"/>
                </mxCell>
                <mxCell id="181" style="edgeStyle=none;html=1;exitX=0;exitY=0.5;exitDx=0;exitDy=0;entryX=1;entryY=0.5;entryDx=0;entryDy=0;" edge="1" parent="1" source="93" target="50">
                    <mxGeometry relative="1" as="geometry"/>
                </mxCell>
                <mxCell id="93" value="Grading" style="rhombus;whiteSpace=wrap;html=1;" vertex="1" parent="1">
                    <mxGeometry x="486" y="787" width="80" height="80" as="geometry"/>
                </mxCell>
                <mxCell id="180" style="edgeStyle=none;html=1;exitX=0;exitY=0.5;exitDx=0;exitDy=0;entryX=1;entryY=0.5;entryDx=0;entryDy=0;" edge="1" parent="1" source="2" target="93">
                    <mxGeometry relative="1" as="geometry"/>
                </mxCell>
                <mxCell id="2" value="Teaching assistant" style="rounded=0;whiteSpace=wrap;html=1;" parent="1" vertex="1">
                    <mxGeometry x="726" y="797" width="120" height="60" as="geometry"/>
                </mxCell>
                <mxCell id="102" value="" style="endArrow=classic;html=1;" edge="1" parent="1" source="59" target="100">
                    <mxGeometry width="50" height="50" relative="1" as="geometry">
                        <mxPoint x="581" y="1096.5" as="sourcePoint"/>
                        <mxPoint x="631" y="1046.5" as="targetPoint"/>
                    </mxGeometry>
                </mxCell>
                <mxCell id="103" value="" style="endArrow=classic;html=1;" edge="1" parent="1" source="100" target="2">
                    <mxGeometry width="50" height="50" relative="1" as="geometry">
                        <mxPoint x="516" y="1009" as="sourcePoint"/>
                        <mxPoint x="566" y="959" as="targetPoint"/>
                    </mxGeometry>
                </mxCell>
                <mxCell id="104" value="Assessment" style="rhombus;whiteSpace=wrap;html=1;" vertex="1" parent="1">
                    <mxGeometry x="70" y="1330" width="100" height="60" as="geometry"/>
                </mxCell>
                <mxCell id="108" style="edgeStyle=none;html=1;entryX=1;entryY=1;entryDx=0;entryDy=0;" edge="1" parent="1" source="176" target="48">
                    <mxGeometry relative="1" as="geometry">
                        <mxPoint x="846" y="1070" as="sourcePoint"/>
                    </mxGeometry>
                </mxCell>
                <mxCell id="113" value="&lt;div&gt;Date&lt;/div&gt;" style="ellipse;whiteSpace=wrap;html=1;" vertex="1" parent="1">
                    <mxGeometry x="846" y="1000" width="86" height="40" as="geometry"/>
                </mxCell>
                <mxCell id="112" value="&lt;div&gt;Emplayment Id&lt;/div&gt;" style="ellipse;whiteSpace=wrap;html=1;" vertex="1" parent="1">
                    <mxGeometry x="846" y="950" width="86" height="40" as="geometry"/>
                </mxCell>
                <mxCell id="107" value="" style="endArrow=classic;html=1;exitX=0.5;exitY=0;exitDx=0;exitDy=0;entryX=0.25;entryY=1;entryDx=0;entryDy=0;" edge="1" parent="1" source="104" target="50">
                    <mxGeometry width="50" height="50" relative="1" as="geometry">
                        <mxPoint x="516" y="1009" as="sourcePoint"/>
                        <mxPoint x="566" y="959" as="targetPoint"/>
                        <Array as="points">
                            <mxPoint x="120" y="1130"/>
                        </Array>
                    </mxGeometry>
                </mxCell>
                <mxCell id="106" value="" style="endArrow=classic;html=1;entryX=1;entryY=0.5;entryDx=0;entryDy=0;" edge="1" parent="1" source="59" target="104">
                    <mxGeometry width="50" height="50" relative="1" as="geometry">
                        <mxPoint x="516" y="1094" as="sourcePoint"/>
                        <mxPoint x="566" y="1044" as="targetPoint"/>
                        <Array as="points">
                            <mxPoint x="356" y="1360"/>
                        </Array>
                    </mxGeometry>
                </mxCell>
                <mxCell id="170" style="edgeStyle=none;html=1;exitX=1;exitY=0.5;exitDx=0;exitDy=0;entryX=0;entryY=0.5;entryDx=0;entryDy=0;" edge="1" parent="1" source="125" target="127">
                    <mxGeometry relative="1" as="geometry"/>
                </mxCell>
                <mxCell id="5akjp0fPnfC4H997W78s-40" value="M" style="text;html=1;resizable=0;autosize=1;align=center;verticalAlign=middle;points=[];fillColor=none;strokeColor=none;rounded=0;" parent="1" vertex="1">
                    <mxGeometry x="420" y="50" width="20" height="20" as="geometry"/>
                </mxCell>
                <mxCell id="130" value="M" style="text;html=1;resizable=0;autosize=1;align=center;verticalAlign=middle;points=[];fillColor=none;strokeColor=none;rounded=0;" vertex="1" parent="1">
                    <mxGeometry x="160" y="320" width="20" height="20" as="geometry"/>
                </mxCell>
                <mxCell id="131" value="M" style="text;html=1;resizable=0;autosize=1;align=center;verticalAlign=middle;points=[];fillColor=none;strokeColor=none;rounded=0;" vertex="1" parent="1">
                    <mxGeometry x="420" y="320" width="20" height="20" as="geometry"/>
                </mxCell>
                <mxCell id="173" style="edgeStyle=none;html=1;exitX=1;exitY=0.5;exitDx=0;exitDy=0;entryX=0;entryY=0.5;entryDx=0;entryDy=0;" edge="1" parent="1" source="132" target="134">
                    <mxGeometry relative="1" as="geometry"/>
                </mxCell>
                <mxCell id="132" value="Student" style="rounded=0;whiteSpace=wrap;html=1;" vertex="1" parent="1">
                    <mxGeometry x="40" y="400" width="120" height="60" as="geometry"/>
                </mxCell>
                <mxCell id="133" value="Exercise" style="rounded=0;whiteSpace=wrap;html=1;" vertex="1" parent="1">
                    <mxGeometry x="440" y="400" width="120" height="60" as="geometry"/>
                </mxCell>
                <mxCell id="125" value="Teaching assistant" style="rounded=0;whiteSpace=wrap;html=1;" vertex="1" parent="1">
                    <mxGeometry x="40" y="310" width="120" height="60" as="geometry"/>
                </mxCell>
                <mxCell id="92" style="edgeStyle=none;html=1;exitX=0.5;exitY=1;exitDx=0;exitDy=0;entryX=0.5;entryY=0;entryDx=0;entryDy=0;" edge="1" parent="1" source="48" target="59">
                    <mxGeometry relative="1" as="geometry">
                        <mxPoint x="651" y="1176.5" as="targetPoint"/>
                    </mxGeometry>
                </mxCell>
                <mxCell id="138" value="M" style="text;html=1;resizable=0;autosize=1;align=center;verticalAlign=middle;points=[];fillColor=none;strokeColor=none;rounded=0;rotation=0;" vertex="1" parent="1">
                    <mxGeometry x="420" y="410" width="20" height="20" as="geometry"/>
                </mxCell>
                <mxCell id="159" style="edgeStyle=none;html=1;exitX=1;exitY=0.5;exitDx=0;exitDy=0;entryX=0;entryY=0.5;entryDx=0;entryDy=0;" edge="1" parent="1" source="142" target="144">
                    <mxGeometry relative="1" as="geometry"/>
                </mxCell>
                <mxCell id="144" value="Primary TA" style="rhombus;whiteSpace=wrap;html=1;" vertex="1" parent="1">
                    <mxGeometry x="260" y="480" width="80" height="80" as="geometry"/>
                </mxCell>
                <mxCell id="160" style="edgeStyle=none;html=1;exitX=1;exitY=0.5;exitDx=0;exitDy=0;" edge="1" parent="1" source="144" target="143">
                    <mxGeometry relative="1" as="geometry"/>
                </mxCell>
                <mxCell id="147" value="Exercise" style="rounded=0;whiteSpace=wrap;html=1;" vertex="1" parent="1">
                    <mxGeometry x="40" y="580" width="120" height="60" as="geometry"/>
                </mxCell>
                <mxCell id="149" value="Graded by" style="rhombus;whiteSpace=wrap;html=1;" vertex="1" parent="1">
                    <mxGeometry x="260" y="570" width="80" height="80" as="geometry"/>
                </mxCell>
                <mxCell id="174" style="edgeStyle=none;html=1;exitX=1;exitY=0.5;exitDx=0;exitDy=0;entryX=0;entryY=0.5;entryDx=0;entryDy=0;" edge="1" parent="1" source="134" target="133">
                    <mxGeometry relative="1" as="geometry"/>
                </mxCell>
                <mxCell id="134" value="Assessment" style="rhombus;whiteSpace=wrap;html=1;" vertex="1" parent="1">
                    <mxGeometry x="260" y="390" width="80" height="80" as="geometry"/>
                </mxCell>
                <mxCell id="127" value="Teaches" style="rhombus;whiteSpace=wrap;html=1;" vertex="1" parent="1">
                    <mxGeometry x="260" y="300" width="80" height="80" as="geometry"/>
                </mxCell>
                <mxCell id="5akjp0fPnfC4H997W78s-41" value="M" style="text;html=1;resizable=0;autosize=1;align=center;verticalAlign=middle;points=[];fillColor=none;strokeColor=none;rounded=0;" parent="1" vertex="1">
                    <mxGeometry x="160" y="50" width="20" height="20" as="geometry"/>
                </mxCell>
                <mxCell id="5akjp0fPnfC4H997W78s-42" value="1" style="text;html=1;resizable=0;autosize=1;align=center;verticalAlign=middle;points=[];fillColor=none;strokeColor=none;rounded=0;" parent="1" vertex="1">
                    <mxGeometry x="420" y="140" width="20" height="20" as="geometry"/>
                </mxCell>
                <mxCell id="5akjp0fPnfC4H997W78s-43" value="M" style="text;html=1;resizable=0;autosize=1;align=center;verticalAlign=middle;points=[];fillColor=none;strokeColor=none;rounded=0;" parent="1" vertex="1">
                    <mxGeometry x="160" y="140" width="20" height="20" as="geometry"/>
                </mxCell>
                <mxCell id="5akjp0fPnfC4H997W78s-44" value="M" style="text;html=1;resizable=0;autosize=1;align=center;verticalAlign=middle;points=[];fillColor=none;strokeColor=none;rounded=0;" parent="1" vertex="1">
                    <mxGeometry x="160" y="230" width="20" height="20" as="geometry"/>
                </mxCell>
                <mxCell id="5akjp0fPnfC4H997W78s-45" value="M" style="text;html=1;resizable=0;autosize=1;align=center;verticalAlign=middle;points=[];fillColor=none;strokeColor=none;rounded=0;" parent="1" vertex="1">
                    <mxGeometry x="420" y="230" width="20" height="20" as="geometry"/>
                </mxCell>
                <mxCell id="90" style="edgeStyle=none;html=1;exitX=0.5;exitY=1;exitDx=0;exitDy=0;entryX=0.5;entryY=0;entryDx=0;entryDy=0;" edge="1" parent="1" source="2" target="48">
                    <mxGeometry relative="1" as="geometry"/>
                </mxCell>
                <mxCell id="169" style="edgeStyle=none;html=1;exitX=1;exitY=0.5;exitDx=0;exitDy=0;" edge="1" parent="1" source="5akjp0fPnfC4H997W78s-32" target="5akjp0fPnfC4H997W78s-31">
                    <mxGeometry relative="1" as="geometry"/>
                </mxCell>
                <mxCell id="126" value="Subject" style="rounded=0;whiteSpace=wrap;html=1;" vertex="1" parent="1">
                    <mxGeometry x="440" y="310" width="120" height="60" as="geometry"/>
                </mxCell>
                <mxCell id="143" value="Teaching Assistant" style="rounded=0;whiteSpace=wrap;html=1;" vertex="1" parent="1">
                    <mxGeometry x="440" y="490" width="120" height="60" as="geometry"/>
                </mxCell>
                <mxCell id="162" style="edgeStyle=none;html=1;exitX=1;exitY=0.5;exitDx=0;exitDy=0;entryX=0;entryY=0.5;entryDx=0;entryDy=0;" edge="1" parent="1" source="147" target="149">
                    <mxGeometry relative="1" as="geometry"/>
                </mxCell>
                <mxCell id="137" value="M" style="text;html=1;resizable=0;autosize=1;align=center;verticalAlign=middle;points=[];fillColor=none;strokeColor=none;rounded=0;" vertex="1" parent="1">
                    <mxGeometry x="160" y="410" width="20" height="20" as="geometry"/>
                </mxCell>
                <mxCell id="155" value="1, M" style="text;html=1;resizable=0;autosize=1;align=center;verticalAlign=middle;points=[];fillColor=none;strokeColor=none;rounded=0;rotation=0;" vertex="1" parent="1">
                    <mxGeometry x="157" y="590" width="40" height="20" as="geometry"/>
                </mxCell>
                <mxCell id="157" value="Teaching Assistant" style="rounded=0;whiteSpace=wrap;html=1;" vertex="1" parent="1">
                    <mxGeometry x="440" y="580" width="120" height="60" as="geometry"/>
                </mxCell>
                <mxCell id="158" value="M" style="text;html=1;resizable=0;autosize=1;align=center;verticalAlign=middle;points=[];fillColor=none;strokeColor=none;rounded=0;" vertex="1" parent="1">
                    <mxGeometry x="414" y="590" width="20" height="20" as="geometry"/>
                </mxCell>
                <mxCell id="142" value="Student" style="rounded=0;whiteSpace=wrap;html=1;" vertex="1" parent="1">
                    <mxGeometry x="40" y="490" width="120" height="60" as="geometry"/>
                </mxCell>
                <mxCell id="163" style="edgeStyle=none;html=1;exitX=1;exitY=0.5;exitDx=0;exitDy=0;entryX=0;entryY=0.5;entryDx=0;entryDy=0;" edge="1" parent="1" source="149" target="157">
                    <mxGeometry relative="1" as="geometry"/>
                </mxCell>
                <mxCell id="152" value="1" style="text;html=1;resizable=0;autosize=1;align=center;verticalAlign=middle;points=[];fillColor=none;strokeColor=none;rounded=0;" vertex="1" parent="1">
                    <mxGeometry x="414" y="500" width="20" height="20" as="geometry"/>
                </mxCell>
                <mxCell id="153" value="1, M" style="text;html=1;resizable=0;autosize=1;align=center;verticalAlign=middle;points=[];fillColor=none;strokeColor=none;rounded=0;" vertex="1" parent="1">
                    <mxGeometry x="157" y="500" width="40" height="20" as="geometry"/>
                </mxCell>
                <mxCell id="172" style="edgeStyle=none;html=1;exitX=1;exitY=0.5;exitDx=0;exitDy=0;entryX=0;entryY=0.5;entryDx=0;entryDy=0;" edge="1" parent="1" source="127" target="126">
                    <mxGeometry relative="1" as="geometry"/>
                </mxCell>
                <mxCell id="176" value="&lt;div&gt;Grade score&lt;/div&gt;&lt;div&gt;(0-100)&lt;/div&gt;" style="ellipse;whiteSpace=wrap;html=1;" vertex="1" parent="1">
                    <mxGeometry x="846" y="1050" width="86" height="40" as="geometry"/>
                </mxCell>
                <mxCell id="183" style="edgeStyle=none;html=1;exitX=0.5;exitY=0;exitDx=0;exitDy=0;" edge="1" parent="1" source="175" target="104">
                    <mxGeometry relative="1" as="geometry"/>
                </mxCell>
                <mxCell id="175" value="&lt;div&gt;Effort score&lt;/div&gt;&lt;div&gt;(1-6)&lt;/div&gt;" style="ellipse;whiteSpace=wrap;html=1;" vertex="1" parent="1">
                    <mxGeometry x="77" y="1421" width="86" height="40" as="geometry"/>
                </mxCell>
                <mxCell id="177" value="&lt;div&gt;Grade score&lt;/div&gt;" style="ellipse;whiteSpace=wrap;html=1;" vertex="1" parent="1">
                    <mxGeometry x="483" y="880" width="86" height="40" as="geometry"/>
                </mxCell>
            </root>
        </mxGraphModel>
    </diagram>
</mxfile>